<svg width="1334" height="1207" xmlns="http://www.w3.org/2000/svg" xmlns:xlink="http://www.w3.org/1999/xlink" xml:space="preserve" overflow="hidden"><defs><clipPath id="clip0"><rect x="2376" y="640" width="1334" height="1207"/></clipPath></defs><g clip-path="url(#clip0)" transform="translate(-2376 -640)"><path d="M2892 1673.5C2892 1612.47 2941.47 1563 3002.5 1563 3063.53 1563 3113 1612.47 3113 1673.5 3113 1734.53 3063.53 1784 3002.5 1784 2941.47 1784 2892 1734.53 2892 1673.5Z" fill="#00B050" fill-rule="evenodd"/><text fill="#FFFFFF" font-family="Source Code Pro Semibold,Source Code Pro Semibold_MSFontService,sans-serif" font-style="italic" font-weight="600" font-size="83" transform="matrix(1 0 0 1 2978.24 1702)">d</text><rect x="2398" y="1078" width="1210" height="274" fill="#4472C4" fill-opacity="0.6"/><text font-family="Source Code Pro,Source Code Pro_MSFontService,sans-serif" font-weight="700" font-size="110" transform="matrix(1 0 0 1 2442.85 1252)">P</text><text font-family="Source Code Pro,Source Code Pro_MSFontService,sans-serif" font-weight="400" font-size="110" transform="matrix(1 0 0 1 2508.74 1252)">(D=</text><text font-family="Source Code Pro,Source Code Pro_MSFontService,sans-serif" font-style="italic" font-weight="400" font-size="110" transform="matrix(1 0 0 1 2706.39 1252)">d</text><text font-family="Source Code Pro,Source Code Pro_MSFontService,sans-serif" font-weight="400" font-size="110" transform="matrix(1 0 0 1 2838.16 1252)">| B=</text><text font-family="Source Code Pro,Source Code Pro_MSFontService,sans-serif" font-style="italic" font-weight="400" font-size="110" transform="matrix(1 0 0 1 3101.7 1252)">b</text><text font-family="Source Code Pro,Source Code Pro_MSFontService,sans-serif" font-weight="400" font-size="110" transform="matrix(1 0 0 1 3167.59 1252)">, C</text><text font-family="Source Code Pro,Source Code Pro_MSFontService,sans-serif" font-weight="400" font-size="110" transform="matrix(1 0 0 1 3365.25 1252)">=</text><text font-family="Source Code Pro,Source Code Pro_MSFontService,sans-serif" font-style="italic" font-weight="400" font-size="110" transform="matrix(1 0 0 1 3431.13 1252)">c</text><text font-family="Source Code Pro,Source Code Pro_MSFontService,sans-serif" font-weight="400" font-size="110" transform="matrix(1 0 0 1 3497.02 1252)">)</text><path d="M3003.5 1352.5 3003.5 1563.05" stroke="#70AD47" stroke-width="20.625" stroke-miterlimit="8" fill="none" fill-rule="evenodd"/><text font-family="Source Code Pro Medium,Source Code Pro Medium_MSFontService,sans-serif" font-weight="500" font-size="55" transform="matrix(1 0 0 1 3146.41 1404)">disease=</text><text font-family="Source Code Pro Medium,Source Code Pro Medium_MSFontService,sans-serif" font-weight="500" font-size="55" transform="matrix(1 0 0 1 3146.41 1470)">[</text><text font-family="Source Code Pro Medium,Source Code Pro Medium_MSFontService,sans-serif" font-weight="500" font-size="55" transform="matrix(1 0 0 1 3146.41 1536)">"healthy", </text><text font-family="Source Code Pro Medium,Source Code Pro Medium_MSFontService,sans-serif" font-weight="500" font-size="55" transform="matrix(1 0 0 1 3146.41 1602)">"carrier", </text><text font-family="Source Code Pro Medium,Source Code Pro Medium_MSFontService,sans-serif" font-weight="500" font-size="55" transform="matrix(1 0 0 1 3146.41 1668)">"sick", </text><text font-family="Source Code Pro Medium,Source Code Pro Medium_MSFontService,sans-serif" font-weight="500" font-size="55" transform="matrix(1 0 0 1 3146.41 1734)">"recovering"</text><text font-family="Source Code Pro Medium,Source Code Pro Medium_MSFontService,sans-serif" font-weight="500" font-size="55" transform="matrix(1 0 0 1 3146.41 1800)">]</text><text font-family="Source Code Pro Medium,Source Code Pro Medium_MSFontService,sans-serif" font-weight="500" font-size="55" transform="matrix(1 0 0 1 3443.44 709)">cough=</text><text font-family="Source Code Pro Medium,Source Code Pro Medium_MSFontService,sans-serif" font-weight="500" font-size="55" transform="matrix(1 0 0 1 3443.44 775)">[</text><text font-family="Source Code Pro Medium,Source Code Pro Medium_MSFontService,sans-serif" font-weight="500" font-size="55" transform="matrix(1 0 0 1 3443.44 841)">"</text><text font-family="Source Code Pro Medium,Source Code Pro Medium_MSFontService,sans-serif" font-weight="500" font-size="55" transform="matrix(1 0 0 1 3476.67 841)">yes</text><text font-family="Source Code Pro Medium,Source Code Pro Medium_MSFontService,sans-serif" font-weight="500" font-size="55" transform="matrix(1 0 0 1 3576.35 841)">", </text><text font-family="Source Code Pro Medium,Source Code Pro Medium_MSFontService,sans-serif" font-weight="500" font-size="55" transform="matrix(1 0 0 1 3443.44 907)">"</text><text font-family="Source Code Pro Medium,Source Code Pro Medium_MSFontService,sans-serif" font-weight="500" font-size="55" transform="matrix(1 0 0 1 3476.67 907)">no</text><text font-family="Source Code Pro Medium,Source Code Pro Medium_MSFontService,sans-serif" font-weight="500" font-size="55" transform="matrix(1 0 0 1 3543.12 907)">“</text><text font-family="Source Code Pro Medium,Source Code Pro Medium_MSFontService,sans-serif" font-weight="500" font-size="55" transform="matrix(1 0 0 1 3443.44 973)">]</text><text font-family="Source Code Pro Medium,Source Code Pro Medium_MSFontService,sans-serif" font-weight="500" font-size="55" transform="matrix(1 0 0 1 2759.91 709)">bronchitis=</text><text font-family="Source Code Pro Medium,Source Code Pro Medium_MSFontService,sans-serif" font-weight="500" font-size="55" transform="matrix(1 0 0 1 2759.91 775)">[</text><text font-family="Source Code Pro Medium,Source Code Pro Medium_MSFontService,sans-serif" font-weight="500" font-size="55" transform="matrix(1 0 0 1 2759.91 841)">"</text><text font-family="Source Code Pro Medium,Source Code Pro Medium_MSFontService,sans-serif" font-weight="500" font-size="55" transform="matrix(1 0 0 1 2793.13 841)">none</text><text font-family="Source Code Pro Medium,Source Code Pro Medium_MSFontService,sans-serif" font-weight="500" font-size="55" transform="matrix(1 0 0 1 2926.05 841)">", </text><text font-family="Source Code Pro Medium,Source Code Pro Medium_MSFontService,sans-serif" font-weight="500" font-size="55" transform="matrix(1 0 0 1 2759.91 907)">"</text><text font-family="Source Code Pro Medium,Source Code Pro Medium_MSFontService,sans-serif" font-weight="500" font-size="55" transform="matrix(1 0 0 1 2793.13 907)">mild</text><text font-family="Source Code Pro Medium,Source Code Pro Medium_MSFontService,sans-serif" font-weight="500" font-size="55" transform="matrix(1 0 0 1 2926.05 907)">",</text><text font-family="Source Code Pro Medium,Source Code Pro Medium_MSFontService,sans-serif" font-weight="500" font-size="55" transform="matrix(1 0 0 1 2759.91 973)">"severe"</text><text font-family="Source Code Pro Medium,Source Code Pro Medium_MSFontService,sans-serif" font-weight="500" font-size="55" transform="matrix(1 0 0 1 2759.91 1039)">]</text><path d="M2533 756.5C2533 695.472 2582.47 646 2643.5 646 2704.53 646 2754 695.472 2754 756.5 2754 817.527 2704.53 867 2643.5 867 2582.47 867 2533 817.527 2533 756.5Z" fill="#00B050" fill-rule="evenodd"/><text fill="#FFFFFF" font-family="Source Code Pro Semibold,Source Code Pro Semibold_MSFontService,sans-serif" font-style="italic" font-weight="600" font-size="83" transform="matrix(1 0 0 1 2618.54 785)">b</text><path d="M2643.5 867.5 2643.5 1078.05" stroke="#70AD47" stroke-width="20.625" stroke-miterlimit="8" fill="none" fill-rule="evenodd"/><path d="M3212 756.5C3212 695.472 3261.7 646 3323 646 3384.3 646 3434 695.472 3434 756.5 3434 817.527 3384.3 867 3323 867 3261.7 867 3212 817.527 3212 756.5Z" fill="#00B050" fill-rule="evenodd"/><text fill="#FFFFFF" font-family="Source Code Pro Semibold,Source Code Pro Semibold_MSFontService,sans-serif" font-style="italic" font-weight="600" font-size="83" transform="matrix(1 0 0 1 3298.34 785)">c</text><path d="M3323.5 867.5 3323.5 1078.05" stroke="#70AD47" stroke-width="20.625" stroke-miterlimit="8" fill="none" fill-rule="evenodd"/></g></svg>